<svg width="20" height="20" viewBox="0 0 20 20" fill="none" xmlns="http://www.w3.org/2000/svg">
<path d="M13.8903 2.5H3.54166L3.41328 2.50432C2.43762 2.5703 1.66666 3.38262 1.66666 4.375V13.1269L1.67098 13.2552C1.73696 14.2309 2.54927 15.0019 3.54166 15.0019L7.08249 15.0017V17.0833L5.62499 17.0837L5.54018 17.0894C5.23511 17.1307 4.99999 17.3923 4.99999 17.7087C4.99999 18.0539 5.27981 18.3337 5.62499 18.3337H14.375L14.4598 18.328C14.7648 18.2866 15 18.0251 15 17.7087C15 17.3635 14.7202 17.0837 14.375 17.0837L12.9158 17.0833V15.0017L16.4573 15.0019L16.5857 14.9976C17.5614 14.9316 18.3323 14.1192 18.3323 13.1269V7.91708H17.0823V13.1269L17.0767 13.2117C17.0352 13.5167 16.7737 13.7519 16.4573 13.7519H3.54166L3.45685 13.7462C3.15178 13.7048 2.91666 13.4433 2.91666 13.1269V4.375L2.92236 4.29019C2.96375 3.98513 3.22524 3.75 3.54166 3.75H13.7498V3.12541C13.7498 2.90158 13.8002 2.68953 13.8903 2.5ZM8.33166 15.0017H11.665L11.6658 17.0837H8.33249L8.33166 15.0017ZM14.5832 3.125C14.5832 2.77983 14.863 2.5 15.2082 2.5H18.5413C18.8865 2.5 19.1663 2.77983 19.1663 3.125V6.45833C19.1663 6.80351 18.8865 7.08333 18.5413 7.08333H15.2082C14.863 7.08333 14.5832 6.80351 14.5832 6.45833V5.83333H14.3139C14.1217 5.83333 13.9512 5.95629 13.8904 6.13859L13.1288 8.42333C12.8979 9.11608 12.2496 9.58333 11.5194 9.58333H10.8332V11.0417C10.8332 11.3868 10.5533 11.6667 10.2082 11.6667H6.87499C6.52981 11.6667 6.24999 11.3868 6.24999 11.0417V7.70833C6.24999 7.36316 6.52981 7.08333 6.87499 7.08333H10.2082C10.5533 7.08333 10.8332 7.36316 10.8332 7.70833V8.33333H11.5194C11.7116 8.33333 11.8822 8.21037 11.9429 8.02807L12.7045 5.7433C12.9354 5.05058 13.5837 4.58333 14.3139 4.58333H14.5832V3.125ZM15.8332 5.22327V5.83333H17.9163V3.75H15.8332V5.1934C15.8332 5.19837 15.8333 5.20334 15.8333 5.20833C15.8333 5.21332 15.8332 5.2183 15.8332 5.22327ZM7.49999 8.33333V10.4167H9.58316V8.33333H7.49999Z" fill="#212121"/>
</svg>
